<svg width="800" height="280" xmlns="http://www.w3.org/2000/svg" viewBox="0 0 800 280" font-family="-apple-system, BlinkMacSystemFont, 'Segoe UI', 'PingFang SC', 'Hiragino Sans GB', 'Microsoft YaHei', 'Noto Sans CJK SC', sans-serif">
  <rect width="800" height="280" fill="#ffffff"/>
  <line x1="55" y1="235.0" x2="752" y2="235.0" stroke="#eaeef2" stroke-width="1"/>
  <text x="49" y="239.0" fill="#57606a" font-size="11" text-anchor="end">0</text>
  <line x1="55" y1="196.0" x2="752" y2="196.0" stroke="#eaeef2" stroke-width="1"/>
  <text x="49" y="200.0" fill="#57606a" font-size="11" text-anchor="end">179</text>
  <line x1="55" y1="157.0" x2="752" y2="157.0" stroke="#eaeef2" stroke-width="1"/>
  <text x="49" y="161.0" fill="#57606a" font-size="11" text-anchor="end">359</text>
  <line x1="55" y1="118.0" x2="752" y2="118.0" stroke="#eaeef2" stroke-width="1"/>
  <text x="49" y="122.0" fill="#57606a" font-size="11" text-anchor="end">538</text>
  <line x1="55" y1="79.0" x2="752" y2="79.0" stroke="#eaeef2" stroke-width="1"/>
  <text x="49" y="83.0" fill="#57606a" font-size="11" text-anchor="end">718</text>
  <line x1="55" y1="40.0" x2="752" y2="40.0" stroke="#eaeef2" stroke-width="1"/>
  <text x="49" y="44.0" fill="#57606a" font-size="11" text-anchor="end">898</text>
  <rect x="51.4" y="208.6" width="7.3" height="26.4" fill="#0969da" opacity="0.35" rx="2"/>
  <text x="55.0" y="204.6" fill="#57606a" font-size="10" text-anchor="middle">10</text>
  <rect x="67.9" y="58.4" width="7.3" height="176.6" fill="#0969da" opacity="0.35" rx="2"/>
  <text x="71.6" y="54.4" fill="#57606a" font-size="10" text-anchor="middle">67</text>
  <rect x="84.5" y="45.3" width="7.3" height="189.7" fill="#0969da" opacity="0.35" rx="2"/>
  <text x="88.2" y="41.3" fill="#57606a" font-size="10" text-anchor="middle">72</text>
  <rect x="101.1" y="40.0" width="7.3" height="195.0" fill="#0969da" opacity="0.35" rx="2"/>
  <text x="104.8" y="36.0" fill="#57606a" font-size="10" text-anchor="middle">74</text>
  <rect x="117.7" y="153.3" width="7.3" height="81.7" fill="#0969da" opacity="0.35" rx="2"/>
  <text x="121.4" y="149.3" fill="#57606a" font-size="10" text-anchor="middle">31</text>
  <rect x="134.3" y="171.8" width="7.3" height="63.2" fill="#0969da" opacity="0.35" rx="2"/>
  <text x="138.0" y="167.8" fill="#57606a" font-size="10" text-anchor="middle">24</text>
  <rect x="150.9" y="142.8" width="7.3" height="92.2" fill="#0969da" opacity="0.35" rx="2"/>
  <text x="154.6" y="138.8" fill="#57606a" font-size="10" text-anchor="middle">35</text>
  <rect x="167.5" y="187.6" width="7.3" height="47.4" fill="#0969da" opacity="0.35" rx="2"/>
  <text x="171.2" y="183.6" fill="#57606a" font-size="10" text-anchor="middle">18</text>
  <rect x="184.1" y="179.7" width="7.3" height="55.3" fill="#0969da" opacity="0.35" rx="2"/>
  <text x="187.8" y="175.7" fill="#57606a" font-size="10" text-anchor="middle">21</text>
  <rect x="200.7" y="171.8" width="7.3" height="63.2" fill="#0969da" opacity="0.35" rx="2"/>
  <text x="204.4" y="167.8" fill="#57606a" font-size="10" text-anchor="middle">24</text>
  <rect x="217.3" y="192.8" width="7.3" height="42.2" fill="#0969da" opacity="0.35" rx="2"/>
  <text x="221.0" y="188.8" fill="#57606a" font-size="10" text-anchor="middle">16</text>
  <rect x="233.9" y="161.2" width="7.3" height="73.8" fill="#0969da" opacity="0.35" rx="2"/>
  <text x="237.5" y="157.2" fill="#57606a" font-size="10" text-anchor="middle">28</text>
  <rect x="250.5" y="187.6" width="7.3" height="47.4" fill="#0969da" opacity="0.35" rx="2"/>
  <text x="254.1" y="183.6" fill="#57606a" font-size="10" text-anchor="middle">18</text>
  <rect x="267.1" y="179.7" width="7.3" height="55.3" fill="#0969da" opacity="0.35" rx="2"/>
  <text x="270.7" y="175.7" fill="#57606a" font-size="10" text-anchor="middle">21</text>
  <rect x="283.7" y="187.6" width="7.3" height="47.4" fill="#0969da" opacity="0.35" rx="2"/>
  <text x="287.3" y="183.6" fill="#57606a" font-size="10" text-anchor="middle">18</text>
  <rect x="300.3" y="184.9" width="7.3" height="50.1" fill="#0969da" opacity="0.35" rx="2"/>
  <text x="303.9" y="180.9" fill="#57606a" font-size="10" text-anchor="middle">19</text>
  <rect x="316.9" y="174.4" width="7.3" height="60.6" fill="#0969da" opacity="0.35" rx="2"/>
  <text x="320.5" y="170.4" fill="#57606a" font-size="10" text-anchor="middle">23</text>
  <rect x="333.5" y="190.2" width="7.3" height="44.8" fill="#0969da" opacity="0.35" rx="2"/>
  <text x="337.1" y="186.2" fill="#57606a" font-size="10" text-anchor="middle">17</text>
  <rect x="350.1" y="169.1" width="7.3" height="65.9" fill="#0969da" opacity="0.35" rx="2"/>
  <text x="353.7" y="165.1" fill="#57606a" font-size="10" text-anchor="middle">25</text>
  <rect x="366.7" y="161.2" width="7.3" height="73.8" fill="#0969da" opacity="0.35" rx="2"/>
  <text x="370.3" y="157.2" fill="#57606a" font-size="10" text-anchor="middle">28</text>
  <rect x="383.3" y="203.4" width="7.3" height="31.6" fill="#0969da" opacity="0.35" rx="2"/>
  <text x="386.9" y="199.4" fill="#57606a" font-size="10" text-anchor="middle">12</text>
  <rect x="399.9" y="187.6" width="7.3" height="47.4" fill="#0969da" opacity="0.35" rx="2"/>
  <text x="403.5" y="183.6" fill="#57606a" font-size="10" text-anchor="middle">18</text>
  <rect x="416.4" y="179.7" width="7.3" height="55.3" fill="#0969da" opacity="0.35" rx="2"/>
  <text x="420.1" y="175.7" fill="#57606a" font-size="10" text-anchor="middle">21</text>
  <rect x="433.0" y="182.3" width="7.3" height="52.7" fill="#0969da" opacity="0.35" rx="2"/>
  <text x="436.7" y="178.3" fill="#57606a" font-size="10" text-anchor="middle">20</text>
  <rect x="449.6" y="192.8" width="7.3" height="42.2" fill="#0969da" opacity="0.35" rx="2"/>
  <text x="453.3" y="188.8" fill="#57606a" font-size="10" text-anchor="middle">16</text>
  <rect x="466.2" y="179.7" width="7.3" height="55.3" fill="#0969da" opacity="0.35" rx="2"/>
  <text x="469.9" y="175.7" fill="#57606a" font-size="10" text-anchor="middle">21</text>
  <rect x="482.8" y="195.5" width="7.3" height="39.5" fill="#0969da" opacity="0.35" rx="2"/>
  <text x="486.5" y="191.5" fill="#57606a" font-size="10" text-anchor="middle">15</text>
  <rect x="499.4" y="203.4" width="7.3" height="31.6" fill="#0969da" opacity="0.35" rx="2"/>
  <text x="503.1" y="199.4" fill="#57606a" font-size="10" text-anchor="middle">12</text>
  <rect x="516.0" y="200.7" width="7.3" height="34.3" fill="#0969da" opacity="0.35" rx="2"/>
  <text x="519.7" y="196.7" fill="#57606a" font-size="10" text-anchor="middle">13</text>
  <rect x="532.6" y="198.1" width="7.3" height="36.9" fill="#0969da" opacity="0.35" rx="2"/>
  <text x="536.3" y="194.1" fill="#57606a" font-size="10" text-anchor="middle">14</text>
  <rect x="549.2" y="211.3" width="7.3" height="23.7" fill="#0969da" opacity="0.35" rx="2"/>
  <text x="552.9" y="207.3" fill="#57606a" font-size="10" text-anchor="middle">9</text>
  <rect x="565.8" y="198.1" width="7.3" height="36.9" fill="#0969da" opacity="0.35" rx="2"/>
  <text x="569.5" y="194.1" fill="#57606a" font-size="10" text-anchor="middle">14</text>
  <rect x="582.4" y="208.6" width="7.3" height="26.4" fill="#0969da" opacity="0.35" rx="2"/>
  <text x="586.0" y="204.6" fill="#57606a" font-size="10" text-anchor="middle">10</text>
  <rect x="599.0" y="187.6" width="7.3" height="47.4" fill="#0969da" opacity="0.35" rx="2"/>
  <text x="602.6" y="183.6" fill="#57606a" font-size="10" text-anchor="middle">18</text>
  <rect x="615.6" y="200.7" width="7.3" height="34.3" fill="#0969da" opacity="0.35" rx="2"/>
  <text x="619.2" y="196.7" fill="#57606a" font-size="10" text-anchor="middle">13</text>
  <rect x="632.2" y="200.7" width="7.3" height="34.3" fill="#0969da" opacity="0.35" rx="2"/>
  <text x="635.8" y="196.7" fill="#57606a" font-size="10" text-anchor="middle">13</text>
  <rect x="648.8" y="192.8" width="7.3" height="42.2" fill="#0969da" opacity="0.35" rx="2"/>
  <text x="652.4" y="188.8" fill="#57606a" font-size="10" text-anchor="middle">16</text>
  <rect x="665.4" y="206.0" width="7.3" height="29.0" fill="#0969da" opacity="0.35" rx="2"/>
  <text x="669.0" y="202.0" fill="#57606a" font-size="10" text-anchor="middle">11</text>
  <rect x="682.0" y="219.2" width="7.3" height="15.8" fill="#0969da" opacity="0.35" rx="2"/>
  <text x="685.6" y="215.2" fill="#57606a" font-size="10" text-anchor="middle">6</text>
  <rect x="698.6" y="208.6" width="7.3" height="26.4" fill="#0969da" opacity="0.35" rx="2"/>
  <text x="702.2" y="204.6" fill="#57606a" font-size="10" text-anchor="middle">10</text>
  <rect x="715.2" y="211.3" width="7.3" height="23.7" fill="#0969da" opacity="0.35" rx="2"/>
  <text x="718.8" y="207.3" fill="#57606a" font-size="10" text-anchor="middle">9</text>
  <rect x="731.8" y="213.9" width="7.3" height="21.1" fill="#0969da" opacity="0.35" rx="2"/>
  <text x="735.4" y="209.9" fill="#57606a" font-size="10" text-anchor="middle">8</text>
  <rect x="748.4" y="208.6" width="7.3" height="26.4" fill="#0969da" opacity="0.35" rx="2"/>
  <text x="752.0" y="204.6" fill="#57606a" font-size="10" text-anchor="middle">10</text>
  <polygon points="55.0,235 55.0,232.8 71.6,218.3 88.2,202.6 104.8,186.6 121.4,179.8 138.0,174.6 154.6,167.0 171.2,163.1 187.8,158.6 204.4,153.4 221.0,149.9 237.5,143.8 254.1,139.9 270.7,135.3 287.3,131.4 303.9,127.3 320.5,122.3 337.1,118.6 353.7,113.2 370.3,107.1 386.9,104.5 403.5,100.6 420.1,96.0 436.7,91.7 453.3,88.2 469.9,83.6 486.5,80.4 503.1,77.8 519.7,75.0 536.3,71.9 552.9,70.0 569.5,66.9 586.0,64.8 602.6,60.8 619.2,58.0 635.8,55.2 652.4,51.7 669.0,49.3 685.6,48.0 702.2,45.9 718.8,43.9 735.4,42.2 752.0,40.0 752.0,235" fill="#0969da" opacity="0.15"/>
  <polyline points="55.0,232.8 71.6,218.3 88.2,202.6 104.8,186.6 121.4,179.8 138.0,174.6 154.6,167.0 171.2,163.1 187.8,158.6 204.4,153.4 221.0,149.9 237.5,143.8 254.1,139.9 270.7,135.3 287.3,131.4 303.9,127.3 320.5,122.3 337.1,118.6 353.7,113.2 370.3,107.1 386.9,104.5 403.5,100.6 420.1,96.0 436.7,91.7 453.3,88.2 469.9,83.6 486.5,80.4 503.1,77.8 519.7,75.0 536.3,71.9 552.9,70.0 569.5,66.9 586.0,64.8 602.6,60.8 619.2,58.0 635.8,55.2 652.4,51.7 669.0,49.3 685.6,48.0 702.2,45.9 718.8,43.9 735.4,42.2 752.0,40.0" fill="none" stroke="#0969da" stroke-width="2" stroke-linejoin="round"/>
  <circle cx="55.0" cy="232.8" r="4" fill="#0969da" stroke="#ffffff" stroke-width="2"/>
  <circle cx="752.0" cy="40.0" r="4" fill="#0969da" stroke="#ffffff" stroke-width="2"/>
  <text x="758" y="239.0" fill="#57606a" font-size="11" text-anchor="start">0</text>
  <text x="758" y="200.0" fill="#57606a" font-size="11" text-anchor="start">14</text>
  <text x="758" y="161.0" fill="#57606a" font-size="11" text-anchor="start">29</text>
  <text x="758" y="122.0" fill="#57606a" font-size="11" text-anchor="start">44</text>
  <text x="758" y="83.0" fill="#57606a" font-size="11" text-anchor="start">59</text>
  <text x="758" y="44.0" fill="#57606a" font-size="11" text-anchor="start">74</text>
  <text x="55.0" y="272" fill="#57606a" font-size="11" text-anchor="middle">05-20</text>
  <line x1="55.0" y1="235" x2="55.0" y2="239" stroke="#57606a" stroke-width="1"/>
  <text x="171.2" y="272" fill="#57606a" font-size="11" text-anchor="middle">05-29</text>
  <line x1="171.2" y1="235" x2="171.2" y2="239" stroke="#57606a" stroke-width="1"/>
  <text x="287.3" y="272" fill="#57606a" font-size="11" text-anchor="middle">06-05</text>
  <line x1="287.3" y1="235" x2="287.3" y2="239" stroke="#57606a" stroke-width="1"/>
  <text x="403.5" y="272" fill="#57606a" font-size="11" text-anchor="middle">06-13</text>
  <line x1="403.5" y1="235" x2="403.5" y2="239" stroke="#57606a" stroke-width="1"/>
  <text x="519.7" y="272" fill="#57606a" font-size="11" text-anchor="middle">06-20</text>
  <line x1="519.7" y1="235" x2="519.7" y2="239" stroke="#57606a" stroke-width="1"/>
  <text x="635.8" y="272" fill="#57606a" font-size="11" text-anchor="middle">06-27</text>
  <line x1="635.8" y1="235" x2="635.8" y2="239" stroke="#57606a" stroke-width="1"/>
  <text x="752.0" y="272" fill="#57606a" font-size="11" text-anchor="middle">07-04</text>
  <line x1="752.0" y1="235" x2="752.0" y2="239" stroke="#57606a" stroke-width="1"/>
  <text x="400" y="22" fill="#1f2328" font-size="14" font-weight="bold" text-anchor="middle">累计：助记 898 词</text>
  <rect x="552" y="30" width="10" height="3" fill="#0969da"/>
  <text x="566" y="34" fill="#57606a" font-size="11">累计助记</text>
  <rect x="624" y="28" width="9" height="7" fill="#0969da" opacity="0.5"/>
  <text x="637" y="34" fill="#57606a" font-size="11">每日新增</text>
  <line x1="55" y1="40" x2="55" y2="235" stroke="#d0d7de" stroke-width="1"/>
  <line x1="55" y1="235" x2="752" y2="235" stroke="#d0d7de" stroke-width="1"/>
</svg>
