<svg width="800" height="280" xmlns="http://www.w3.org/2000/svg" viewBox="0 0 800 280" font-family="-apple-system, BlinkMacSystemFont, 'Segoe UI', 'PingFang SC', 'Hiragino Sans GB', 'Microsoft YaHei', 'Noto Sans CJK SC', sans-serif">
  <rect width="800" height="280" fill="#ffffff"/>
  <line x1="55" y1="235.0" x2="752" y2="235.0" stroke="#eaeef2" stroke-width="1"/>
  <text x="49" y="239.0" fill="#57606a" font-size="11" text-anchor="end">0</text>
  <line x1="55" y1="196.0" x2="752" y2="196.0" stroke="#eaeef2" stroke-width="1"/>
  <text x="49" y="200.0" fill="#57606a" font-size="11" text-anchor="end">181</text>
  <line x1="55" y1="157.0" x2="752" y2="157.0" stroke="#eaeef2" stroke-width="1"/>
  <text x="49" y="161.0" fill="#57606a" font-size="11" text-anchor="end">362</text>
  <line x1="55" y1="118.0" x2="752" y2="118.0" stroke="#eaeef2" stroke-width="1"/>
  <text x="49" y="122.0" fill="#57606a" font-size="11" text-anchor="end">543</text>
  <line x1="55" y1="79.0" x2="752" y2="79.0" stroke="#eaeef2" stroke-width="1"/>
  <text x="49" y="83.0" fill="#57606a" font-size="11" text-anchor="end">724</text>
  <line x1="55" y1="40.0" x2="752" y2="40.0" stroke="#eaeef2" stroke-width="1"/>
  <text x="49" y="44.0" fill="#57606a" font-size="11" text-anchor="end">906</text>
  <rect x="51.4" y="208.6" width="7.1" height="26.4" fill="#0969da" opacity="0.35" rx="2"/>
  <text x="55.0" y="204.6" fill="#57606a" font-size="10" text-anchor="middle">10</text>
  <rect x="67.6" y="58.4" width="7.1" height="176.6" fill="#0969da" opacity="0.35" rx="2"/>
  <text x="71.2" y="54.4" fill="#57606a" font-size="10" text-anchor="middle">67</text>
  <rect x="83.9" y="45.3" width="7.1" height="189.7" fill="#0969da" opacity="0.35" rx="2"/>
  <text x="87.4" y="41.3" fill="#57606a" font-size="10" text-anchor="middle">72</text>
  <rect x="100.1" y="40.0" width="7.1" height="195.0" fill="#0969da" opacity="0.35" rx="2"/>
  <text x="103.6" y="36.0" fill="#57606a" font-size="10" text-anchor="middle">74</text>
  <rect x="116.3" y="153.3" width="7.1" height="81.7" fill="#0969da" opacity="0.35" rx="2"/>
  <text x="119.8" y="149.3" fill="#57606a" font-size="10" text-anchor="middle">31</text>
  <rect x="132.5" y="171.8" width="7.1" height="63.2" fill="#0969da" opacity="0.35" rx="2"/>
  <text x="136.0" y="167.8" fill="#57606a" font-size="10" text-anchor="middle">24</text>
  <rect x="148.7" y="142.8" width="7.1" height="92.2" fill="#0969da" opacity="0.35" rx="2"/>
  <text x="152.3" y="138.8" fill="#57606a" font-size="10" text-anchor="middle">35</text>
  <rect x="164.9" y="187.6" width="7.1" height="47.4" fill="#0969da" opacity="0.35" rx="2"/>
  <text x="168.5" y="183.6" fill="#57606a" font-size="10" text-anchor="middle">18</text>
  <rect x="181.1" y="179.7" width="7.1" height="55.3" fill="#0969da" opacity="0.35" rx="2"/>
  <text x="184.7" y="175.7" fill="#57606a" font-size="10" text-anchor="middle">21</text>
  <rect x="197.3" y="171.8" width="7.1" height="63.2" fill="#0969da" opacity="0.35" rx="2"/>
  <text x="200.9" y="167.8" fill="#57606a" font-size="10" text-anchor="middle">24</text>
  <rect x="213.5" y="192.8" width="7.1" height="42.2" fill="#0969da" opacity="0.35" rx="2"/>
  <text x="217.1" y="188.8" fill="#57606a" font-size="10" text-anchor="middle">16</text>
  <rect x="229.7" y="161.2" width="7.1" height="73.8" fill="#0969da" opacity="0.35" rx="2"/>
  <text x="233.3" y="157.2" fill="#57606a" font-size="10" text-anchor="middle">28</text>
  <rect x="245.9" y="187.6" width="7.1" height="47.4" fill="#0969da" opacity="0.35" rx="2"/>
  <text x="249.5" y="183.6" fill="#57606a" font-size="10" text-anchor="middle">18</text>
  <rect x="262.2" y="179.7" width="7.1" height="55.3" fill="#0969da" opacity="0.35" rx="2"/>
  <text x="265.7" y="175.7" fill="#57606a" font-size="10" text-anchor="middle">21</text>
  <rect x="278.4" y="187.6" width="7.1" height="47.4" fill="#0969da" opacity="0.35" rx="2"/>
  <text x="281.9" y="183.6" fill="#57606a" font-size="10" text-anchor="middle">18</text>
  <rect x="294.6" y="184.9" width="7.1" height="50.1" fill="#0969da" opacity="0.35" rx="2"/>
  <text x="298.1" y="180.9" fill="#57606a" font-size="10" text-anchor="middle">19</text>
  <rect x="310.8" y="174.4" width="7.1" height="60.6" fill="#0969da" opacity="0.35" rx="2"/>
  <text x="314.3" y="170.4" fill="#57606a" font-size="10" text-anchor="middle">23</text>
  <rect x="327.0" y="190.2" width="7.1" height="44.8" fill="#0969da" opacity="0.35" rx="2"/>
  <text x="330.6" y="186.2" fill="#57606a" font-size="10" text-anchor="middle">17</text>
  <rect x="343.2" y="169.1" width="7.1" height="65.9" fill="#0969da" opacity="0.35" rx="2"/>
  <text x="346.8" y="165.1" fill="#57606a" font-size="10" text-anchor="middle">25</text>
  <rect x="359.4" y="161.2" width="7.1" height="73.8" fill="#0969da" opacity="0.35" rx="2"/>
  <text x="363.0" y="157.2" fill="#57606a" font-size="10" text-anchor="middle">28</text>
  <rect x="375.6" y="203.4" width="7.1" height="31.6" fill="#0969da" opacity="0.35" rx="2"/>
  <text x="379.2" y="199.4" fill="#57606a" font-size="10" text-anchor="middle">12</text>
  <rect x="391.8" y="187.6" width="7.1" height="47.4" fill="#0969da" opacity="0.35" rx="2"/>
  <text x="395.4" y="183.6" fill="#57606a" font-size="10" text-anchor="middle">18</text>
  <rect x="408.0" y="179.7" width="7.1" height="55.3" fill="#0969da" opacity="0.35" rx="2"/>
  <text x="411.6" y="175.7" fill="#57606a" font-size="10" text-anchor="middle">21</text>
  <rect x="424.2" y="182.3" width="7.1" height="52.7" fill="#0969da" opacity="0.35" rx="2"/>
  <text x="427.8" y="178.3" fill="#57606a" font-size="10" text-anchor="middle">20</text>
  <rect x="440.5" y="192.8" width="7.1" height="42.2" fill="#0969da" opacity="0.35" rx="2"/>
  <text x="444.0" y="188.8" fill="#57606a" font-size="10" text-anchor="middle">16</text>
  <rect x="456.7" y="179.7" width="7.1" height="55.3" fill="#0969da" opacity="0.35" rx="2"/>
  <text x="460.2" y="175.7" fill="#57606a" font-size="10" text-anchor="middle">21</text>
  <rect x="472.9" y="195.5" width="7.1" height="39.5" fill="#0969da" opacity="0.35" rx="2"/>
  <text x="476.4" y="191.5" fill="#57606a" font-size="10" text-anchor="middle">15</text>
  <rect x="489.1" y="203.4" width="7.1" height="31.6" fill="#0969da" opacity="0.35" rx="2"/>
  <text x="492.7" y="199.4" fill="#57606a" font-size="10" text-anchor="middle">12</text>
  <rect x="505.3" y="200.7" width="7.1" height="34.3" fill="#0969da" opacity="0.35" rx="2"/>
  <text x="508.9" y="196.7" fill="#57606a" font-size="10" text-anchor="middle">13</text>
  <rect x="521.5" y="198.1" width="7.1" height="36.9" fill="#0969da" opacity="0.35" rx="2"/>
  <text x="525.1" y="194.1" fill="#57606a" font-size="10" text-anchor="middle">14</text>
  <rect x="537.7" y="211.3" width="7.1" height="23.7" fill="#0969da" opacity="0.35" rx="2"/>
  <text x="541.3" y="207.3" fill="#57606a" font-size="10" text-anchor="middle">9</text>
  <rect x="553.9" y="198.1" width="7.1" height="36.9" fill="#0969da" opacity="0.35" rx="2"/>
  <text x="557.5" y="194.1" fill="#57606a" font-size="10" text-anchor="middle">14</text>
  <rect x="570.1" y="208.6" width="7.1" height="26.4" fill="#0969da" opacity="0.35" rx="2"/>
  <text x="573.7" y="204.6" fill="#57606a" font-size="10" text-anchor="middle">10</text>
  <rect x="586.3" y="187.6" width="7.1" height="47.4" fill="#0969da" opacity="0.35" rx="2"/>
  <text x="589.9" y="183.6" fill="#57606a" font-size="10" text-anchor="middle">18</text>
  <rect x="602.6" y="200.7" width="7.1" height="34.3" fill="#0969da" opacity="0.35" rx="2"/>
  <text x="606.1" y="196.7" fill="#57606a" font-size="10" text-anchor="middle">13</text>
  <rect x="618.8" y="200.7" width="7.1" height="34.3" fill="#0969da" opacity="0.35" rx="2"/>
  <text x="622.3" y="196.7" fill="#57606a" font-size="10" text-anchor="middle">13</text>
  <rect x="635.0" y="192.8" width="7.1" height="42.2" fill="#0969da" opacity="0.35" rx="2"/>
  <text x="638.5" y="188.8" fill="#57606a" font-size="10" text-anchor="middle">16</text>
  <rect x="651.2" y="206.0" width="7.1" height="29.0" fill="#0969da" opacity="0.35" rx="2"/>
  <text x="654.7" y="202.0" fill="#57606a" font-size="10" text-anchor="middle">11</text>
  <rect x="667.4" y="219.2" width="7.1" height="15.8" fill="#0969da" opacity="0.35" rx="2"/>
  <text x="671.0" y="215.2" fill="#57606a" font-size="10" text-anchor="middle">6</text>
  <rect x="683.6" y="208.6" width="7.1" height="26.4" fill="#0969da" opacity="0.35" rx="2"/>
  <text x="687.2" y="204.6" fill="#57606a" font-size="10" text-anchor="middle">10</text>
  <rect x="699.8" y="211.3" width="7.1" height="23.7" fill="#0969da" opacity="0.35" rx="2"/>
  <text x="703.4" y="207.3" fill="#57606a" font-size="10" text-anchor="middle">9</text>
  <rect x="716.0" y="213.9" width="7.1" height="21.1" fill="#0969da" opacity="0.35" rx="2"/>
  <text x="719.6" y="209.9" fill="#57606a" font-size="10" text-anchor="middle">8</text>
  <rect x="732.2" y="208.6" width="7.1" height="26.4" fill="#0969da" opacity="0.35" rx="2"/>
  <text x="735.8" y="204.6" fill="#57606a" font-size="10" text-anchor="middle">10</text>
  <rect x="748.4" y="213.9" width="7.1" height="21.1" fill="#0969da" opacity="0.35" rx="2"/>
  <text x="752.0" y="209.9" fill="#57606a" font-size="10" text-anchor="middle">8</text>
  <polygon points="55.0,235 55.0,232.8 71.2,218.4 87.4,202.9 103.6,187.0 119.8,180.3 136.0,175.2 152.3,167.6 168.5,163.8 184.7,159.2 200.9,154.1 217.1,150.6 233.3,144.6 249.5,140.7 265.7,136.2 281.9,132.3 298.1,128.2 314.3,123.3 330.6,119.6 346.8,114.3 363.0,108.2 379.2,105.6 395.4,101.8 411.6,97.3 427.8,92.9 444.0,89.5 460.2,85.0 476.4,81.8 492.7,79.2 508.9,76.4 525.1,73.4 541.3,71.4 557.5,68.4 573.7,66.3 589.9,62.4 606.1,59.6 622.3,56.8 638.5,53.3 654.7,51.0 671.0,49.7 687.2,47.5 703.4,45.6 719.6,43.9 735.8,41.7 752.0,40.0 752.0,235" fill="#0969da" opacity="0.15"/>
  <polyline points="55.0,232.8 71.2,218.4 87.4,202.9 103.6,187.0 119.8,180.3 136.0,175.2 152.3,167.6 168.5,163.8 184.7,159.2 200.9,154.1 217.1,150.6 233.3,144.6 249.5,140.7 265.7,136.2 281.9,132.3 298.1,128.2 314.3,123.3 330.6,119.6 346.8,114.3 363.0,108.2 379.2,105.6 395.4,101.8 411.6,97.3 427.8,92.9 444.0,89.5 460.2,85.0 476.4,81.8 492.7,79.2 508.9,76.4 525.1,73.4 541.3,71.4 557.5,68.4 573.7,66.3 589.9,62.4 606.1,59.6 622.3,56.8 638.5,53.3 654.7,51.0 671.0,49.7 687.2,47.5 703.4,45.6 719.6,43.9 735.8,41.7 752.0,40.0" fill="none" stroke="#0969da" stroke-width="2" stroke-linejoin="round"/>
  <circle cx="55.0" cy="232.8" r="4" fill="#0969da" stroke="#ffffff" stroke-width="2"/>
  <circle cx="752.0" cy="40.0" r="4" fill="#0969da" stroke="#ffffff" stroke-width="2"/>
  <text x="758" y="239.0" fill="#57606a" font-size="11" text-anchor="start">0</text>
  <text x="758" y="200.0" fill="#57606a" font-size="11" text-anchor="start">14</text>
  <text x="758" y="161.0" fill="#57606a" font-size="11" text-anchor="start">29</text>
  <text x="758" y="122.0" fill="#57606a" font-size="11" text-anchor="start">44</text>
  <text x="758" y="83.0" fill="#57606a" font-size="11" text-anchor="start">59</text>
  <text x="758" y="44.0" fill="#57606a" font-size="11" text-anchor="start">74</text>
  <text x="55.0" y="272" fill="#57606a" font-size="11" text-anchor="middle">05-20</text>
  <line x1="55.0" y1="235" x2="55.0" y2="239" stroke="#57606a" stroke-width="1"/>
  <text x="168.5" y="272" fill="#57606a" font-size="11" text-anchor="middle">05-29</text>
  <line x1="168.5" y1="235" x2="168.5" y2="239" stroke="#57606a" stroke-width="1"/>
  <text x="281.9" y="272" fill="#57606a" font-size="11" text-anchor="middle">06-05</text>
  <line x1="281.9" y1="235" x2="281.9" y2="239" stroke="#57606a" stroke-width="1"/>
  <text x="395.4" y="272" fill="#57606a" font-size="11" text-anchor="middle">06-13</text>
  <line x1="395.4" y1="235" x2="395.4" y2="239" stroke="#57606a" stroke-width="1"/>
  <text x="508.9" y="272" fill="#57606a" font-size="11" text-anchor="middle">06-20</text>
  <line x1="508.9" y1="235" x2="508.9" y2="239" stroke="#57606a" stroke-width="1"/>
  <text x="622.3" y="272" fill="#57606a" font-size="11" text-anchor="middle">06-27</text>
  <line x1="622.3" y1="235" x2="622.3" y2="239" stroke="#57606a" stroke-width="1"/>
  <text x="735.8" y="272" fill="#57606a" font-size="11" text-anchor="middle">07-04</text>
  <line x1="735.8" y1="235" x2="735.8" y2="239" stroke="#57606a" stroke-width="1"/>
  <text x="752.0" y="272" fill="#57606a" font-size="11" text-anchor="middle">07-05</text>
  <line x1="752.0" y1="235" x2="752.0" y2="239" stroke="#57606a" stroke-width="1"/>
  <text x="400" y="22" fill="#1f2328" font-size="14" font-weight="bold" text-anchor="middle">累计：助记 906 词</text>
  <rect x="552" y="30" width="10" height="3" fill="#0969da"/>
  <text x="566" y="34" fill="#57606a" font-size="11">累计助记</text>
  <rect x="624" y="28" width="9" height="7" fill="#0969da" opacity="0.5"/>
  <text x="637" y="34" fill="#57606a" font-size="11">每日新增</text>
  <line x1="55" y1="40" x2="55" y2="235" stroke="#d0d7de" stroke-width="1"/>
  <line x1="55" y1="235" x2="752" y2="235" stroke="#d0d7de" stroke-width="1"/>
</svg>
